<mxfile host="app.diagrams.net" modified="2023-09-03T19:56:25.959Z" agent="Mozilla/5.0 (Macintosh; Intel Mac OS X 10.15; rv:109.0) Gecko/20100101 Firefox/116.0" etag="iphgWloaf9BjrQT3b7qd" version="21.7.2" type="github">
  <diagram name="Page-1" id="f0DqxVU4n79ps42XZA6x">
    <mxGraphModel dx="2653" dy="1704" grid="1" gridSize="10" guides="1" tooltips="1" connect="1" arrows="1" fold="1" page="1" pageScale="1" pageWidth="850" pageHeight="1100" math="0" shadow="0">
      <root>
        <mxCell id="0" />
        <mxCell id="1" parent="0" />
        <mxCell id="iICr8pPdVY2_rQM_-BbZ-1" value="Media (is JPA entity &amp; children)" style="swimlane;perimeterSpacing=0;rounded=0;" parent="1" vertex="1">
          <mxGeometry x="39.5" y="560" width="520.5" height="500" as="geometry" />
        </mxCell>
        <mxCell id="iICr8pPdVY2_rQM_-BbZ-6" value="VideoResource(Optional) (cont mult)" style="swimlane;" parent="iICr8pPdVY2_rQM_-BbZ-1" vertex="1">
          <mxGeometry x="10.5" y="30" width="250" height="240" as="geometry" />
        </mxCell>
        <mxCell id="iICr8pPdVY2_rQM_-BbZ-7" value="&lt;div&gt;Bitrate = -1&lt;br&gt;&lt;/div&gt;&lt;div&gt;Codec&lt;/div&gt;&lt;div&gt;Crf = -1&lt;/div&gt;&lt;div&gt;NvRf = -1&lt;/div&gt;&lt;div&gt;QsvRf = -1&lt;br&gt;&lt;/div&gt;&lt;div&gt;Framerate&lt;/div&gt;&lt;div&gt;Interlaced?&lt;/div&gt;&lt;div&gt;Teceline?&lt;/div&gt;&lt;div&gt;Bit Depth&lt;/div&gt;&lt;div&gt;Length&lt;/div&gt;&lt;div&gt;Resolution[int, int]&lt;/div&gt;&lt;div&gt;IsHDR?&lt;/div&gt;&lt;div&gt;File (optional, stored as a string, get File obj)&lt;br&gt;&lt;/div&gt;&lt;div&gt;&lt;br&gt;&lt;/div&gt;" style="text;html=1;align=center;verticalAlign=middle;resizable=0;points=[];autosize=1;strokeColor=none;fillColor=none;" parent="iICr8pPdVY2_rQM_-BbZ-6" vertex="1">
          <mxGeometry x="-10" y="20" width="260" height="220" as="geometry" />
        </mxCell>
        <mxCell id="iICr8pPdVY2_rQM_-BbZ-9" value="AudioResource(Optional) (cont mult)" style="swimlane;" parent="iICr8pPdVY2_rQM_-BbZ-1" vertex="1">
          <mxGeometry x="269.5" y="30" width="250" height="230" as="geometry" />
        </mxCell>
        <mxCell id="iICr8pPdVY2_rQM_-BbZ-10" value="&lt;div&gt;Bitrate&lt;/div&gt;&lt;div&gt;Codec&lt;br&gt;&lt;/div&gt;&lt;div&gt;Channels&lt;br&gt;&lt;/div&gt;&lt;div&gt;Bit Depth&lt;/div&gt;&lt;div&gt;Sample Rate&lt;br&gt;&lt;/div&gt;&lt;div&gt;Length&lt;/div&gt;&lt;div&gt;File (optional, stored as a string, get File obj)&lt;/div&gt;&lt;div&gt;&lt;br&gt;&lt;/div&gt;" style="text;html=1;align=center;verticalAlign=middle;resizable=0;points=[];autosize=1;strokeColor=none;fillColor=none;" parent="iICr8pPdVY2_rQM_-BbZ-9" vertex="1">
          <mxGeometry x="-10" y="85" width="260" height="130" as="geometry" />
        </mxCell>
        <mxCell id="iICr8pPdVY2_rQM_-BbZ-11" value="SubtitleResource(Optional) (cont mult)" style="swimlane;" parent="iICr8pPdVY2_rQM_-BbZ-1" vertex="1">
          <mxGeometry x="10.5" y="270" width="250" height="220" as="geometry" />
        </mxCell>
        <mxCell id="iICr8pPdVY2_rQM_-BbZ-12" value="&lt;div&gt;InputBitrate&lt;/div&gt;&lt;div&gt;Framerate&lt;/div&gt;&lt;div&gt;Interlaced?&lt;/div&gt;&lt;div&gt;Teceline?&lt;/div&gt;&lt;div&gt;Bit Depth&lt;/div&gt;&lt;div&gt;Length&lt;/div&gt;&lt;div&gt;Resolution[int, int]&lt;/div&gt;&lt;div&gt;IsHDR?&lt;/div&gt;&lt;div&gt;File (optional, stored as a string, get File obj)&lt;/div&gt;&lt;div&gt;&lt;br&gt;&lt;/div&gt;" style="text;html=1;align=center;verticalAlign=middle;resizable=0;points=[];autosize=1;strokeColor=none;fillColor=none;" parent="iICr8pPdVY2_rQM_-BbZ-11" vertex="1">
          <mxGeometry x="-10" y="40" width="260" height="160" as="geometry" />
        </mxCell>
        <mxCell id="iICr8pPdVY2_rQM_-BbZ-13" value="&amp;nbsp;Segments (create entity w getter/setter)" style="swimlane;fontStyle=0;childLayout=stackLayout;horizontal=1;startSize=26;fillColor=none;horizontalStack=0;resizeParent=1;resizeParentMax=0;resizeLast=0;collapsible=1;marginBottom=0;html=1;" parent="iICr8pPdVY2_rQM_-BbZ-1" vertex="1">
          <mxGeometry x="269.5" y="270" width="233" height="104" as="geometry" />
        </mxCell>
        <mxCell id="iICr8pPdVY2_rQM_-BbZ-14" value="Segment 1 9.99 means 0 to 9.99 seconds" style="text;strokeColor=none;fillColor=none;align=left;verticalAlign=top;spacingLeft=4;spacingRight=4;overflow=hidden;rotatable=0;points=[[0,0.5],[1,0.5]];portConstraint=eastwest;whiteSpace=wrap;html=1;" parent="iICr8pPdVY2_rQM_-BbZ-13" vertex="1">
          <mxGeometry y="26" width="233" height="26" as="geometry" />
        </mxCell>
        <mxCell id="iICr8pPdVY2_rQM_-BbZ-15" value="Segment 2 19.99" style="text;strokeColor=none;fillColor=none;align=left;verticalAlign=top;spacingLeft=4;spacingRight=4;overflow=hidden;rotatable=0;points=[[0,0.5],[1,0.5]];portConstraint=eastwest;whiteSpace=wrap;html=1;" parent="iICr8pPdVY2_rQM_-BbZ-13" vertex="1">
          <mxGeometry y="52" width="233" height="26" as="geometry" />
        </mxCell>
        <mxCell id="iICr8pPdVY2_rQM_-BbZ-16" value="&lt;div&gt;Segment 3 29.99&lt;/div&gt;" style="text;strokeColor=none;fillColor=none;align=left;verticalAlign=top;spacingLeft=4;spacingRight=4;overflow=hidden;rotatable=0;points=[[0,0.5],[1,0.5]];portConstraint=eastwest;whiteSpace=wrap;html=1;" parent="iICr8pPdVY2_rQM_-BbZ-13" vertex="1">
          <mxGeometry y="78" width="233" height="26" as="geometry" />
        </mxCell>
        <mxCell id="iICr8pPdVY2_rQM_-BbZ-20" value="&lt;div&gt;Name&lt;/div&gt;&lt;div&gt;Year&lt;/div&gt;&lt;div&gt;Edition&lt;br&gt;&lt;/div&gt;" style="text;html=1;align=left;verticalAlign=middle;resizable=0;points=[];autosize=1;strokeColor=none;fillColor=none;" parent="iICr8pPdVY2_rQM_-BbZ-1" vertex="1">
          <mxGeometry x="277" y="390" width="60" height="60" as="geometry" />
        </mxCell>
        <mxCell id="qK8T354G06c9aEnAW-Ob-2" value="MediaBuilder" style="swimlane;whiteSpace=wrap;html=1;" vertex="1" parent="1">
          <mxGeometry x="245" y="260" width="350" height="110" as="geometry" />
        </mxCell>
        <mxCell id="qK8T354G06c9aEnAW-Ob-16" value="&lt;div&gt;public MediaBuilder fromFile(File file)&lt;/div&gt;&lt;div&gt;public MediaBuilder withVideoResource(VideoResource)&lt;/div&gt;&lt;div&gt;public MediaBuilder withAudioResource(AudioResource)&lt;/div&gt;&lt;div&gt;public MediaBuilder withSubtitleResource(SubtitleResource)&lt;br&gt;&lt;/div&gt;" style="text;html=1;align=left;verticalAlign=middle;resizable=0;points=[];autosize=1;strokeColor=none;fillColor=none;" vertex="1" parent="qK8T354G06c9aEnAW-Ob-2">
          <mxGeometry x="10" y="30" width="340" height="70" as="geometry" />
        </mxCell>
        <mxCell id="qK8T354G06c9aEnAW-Ob-23" style="edgeStyle=orthogonalEdgeStyle;rounded=0;orthogonalLoop=1;jettySize=auto;html=1;exitX=0.5;exitY=1;exitDx=0;exitDy=0;entryX=0.5;entryY=0;entryDx=0;entryDy=0;curved=1;" edge="1" parent="1" source="qK8T354G06c9aEnAW-Ob-17" target="qK8T354G06c9aEnAW-Ob-2">
          <mxGeometry relative="1" as="geometry" />
        </mxCell>
        <mxCell id="qK8T354G06c9aEnAW-Ob-17" value="VideoResourceBuilder" style="swimlane;whiteSpace=wrap;html=1;" vertex="1" parent="1">
          <mxGeometry x="60" width="240" height="200" as="geometry" />
        </mxCell>
        <mxCell id="qK8T354G06c9aEnAW-Ob-27" value="&lt;div align=&quot;left&quot;&gt;(implementation) fromFile&lt;/div&gt;&lt;div align=&quot;left&quot;&gt;withBitrate(int bitrate)&lt;/div&gt;&lt;div align=&quot;left&quot;&gt;withCodec(VideoCodec(enum) codec)&lt;/div&gt;&lt;div align=&quot;left&quot;&gt;withBitDepth(int bitDepth)&lt;/div&gt;&lt;div align=&quot;left&quot;&gt;withHDRMetadata()&lt;br&gt;&lt;/div&gt;&lt;div align=&quot;left&quot;&gt;&lt;br&gt;&lt;/div&gt;" style="text;html=1;align=left;verticalAlign=middle;resizable=0;points=[];autosize=1;strokeColor=none;fillColor=none;" vertex="1" parent="qK8T354G06c9aEnAW-Ob-17">
          <mxGeometry x="10" y="50" width="230" height="100" as="geometry" />
        </mxCell>
        <mxCell id="qK8T354G06c9aEnAW-Ob-21" style="edgeStyle=orthogonalEdgeStyle;rounded=0;orthogonalLoop=1;jettySize=auto;html=1;exitX=0.5;exitY=1;exitDx=0;exitDy=0;entryX=0.5;entryY=0;entryDx=0;entryDy=0;curved=1;" edge="1" parent="1" source="qK8T354G06c9aEnAW-Ob-18" target="qK8T354G06c9aEnAW-Ob-2">
          <mxGeometry relative="1" as="geometry" />
        </mxCell>
        <mxCell id="qK8T354G06c9aEnAW-Ob-18" value="AudioResourceBuilder" style="swimlane;whiteSpace=wrap;html=1;" vertex="1" parent="1">
          <mxGeometry x="310" width="220" height="200" as="geometry" />
        </mxCell>
        <mxCell id="qK8T354G06c9aEnAW-Ob-28" value="&lt;div&gt;(implementation) fromFile&lt;/div&gt;&lt;div&gt;withBitrate(int bitrate)&lt;/div&gt;&lt;div&gt;withCodec(AudioCodec(enum) codec)&lt;br&gt;&lt;/div&gt;&lt;div&gt;withSampleRate(int sampleRate)&lt;/div&gt;&lt;div&gt;withChannels(int channels)&lt;/div&gt;&lt;div&gt;&lt;br&gt;&lt;/div&gt;" style="text;html=1;align=center;verticalAlign=middle;resizable=0;points=[];autosize=1;strokeColor=none;fillColor=none;" vertex="1" parent="qK8T354G06c9aEnAW-Ob-18">
          <mxGeometry x="-9.5" y="40" width="230" height="100" as="geometry" />
        </mxCell>
        <mxCell id="qK8T354G06c9aEnAW-Ob-22" style="edgeStyle=orthogonalEdgeStyle;rounded=0;orthogonalLoop=1;jettySize=auto;html=1;exitX=0.5;exitY=1;exitDx=0;exitDy=0;entryX=0.5;entryY=0;entryDx=0;entryDy=0;curved=1;" edge="1" parent="1" source="qK8T354G06c9aEnAW-Ob-19" target="qK8T354G06c9aEnAW-Ob-2">
          <mxGeometry relative="1" as="geometry" />
        </mxCell>
        <mxCell id="qK8T354G06c9aEnAW-Ob-19" value="SubtitleResourceBuilder" style="swimlane;whiteSpace=wrap;html=1;" vertex="1" parent="1">
          <mxGeometry x="540" width="205" height="200" as="geometry" />
        </mxCell>
        <mxCell id="qK8T354G06c9aEnAW-Ob-29" value="&lt;div&gt;(implementation) fromFile&lt;/div&gt;&lt;div&gt;withType(SubtitleType(enum) type)&lt;/div&gt;" style="text;html=1;align=center;verticalAlign=middle;resizable=0;points=[];autosize=1;strokeColor=none;fillColor=none;" vertex="1" parent="qK8T354G06c9aEnAW-Ob-19">
          <mxGeometry x="-5" y="80" width="210" height="40" as="geometry" />
        </mxCell>
        <mxCell id="qK8T354G06c9aEnAW-Ob-25" value="" style="shape=flexArrow;endArrow=classic;html=1;rounded=0;exitX=0.5;exitY=1;exitDx=0;exitDy=0;entryX=0.5;entryY=0;entryDx=0;entryDy=0;" edge="1" parent="1" source="qK8T354G06c9aEnAW-Ob-2" target="iICr8pPdVY2_rQM_-BbZ-1">
          <mxGeometry width="50" height="50" relative="1" as="geometry">
            <mxPoint x="450" y="570" as="sourcePoint" />
            <mxPoint x="500" y="520" as="targetPoint" />
          </mxGeometry>
        </mxCell>
      </root>
    </mxGraphModel>
  </diagram>
</mxfile>
